<svg width="200" height="180" viewBox="0 0 200 180" fill="none" xmlns="http://www.w3.org/2000/svg">
  <!-- mortarboard top -->
  <path d="M100 10 L190 54 C194 56 194 61 190 63 L100 107 C99 107.5 97.5 107.5 97 107 L7 63 C3 61 3 56 7 54 L97 10 C97.5 9.5 99 9.5 100 10 Z" fill="#050533"/>
  <!-- cap band / head -->
  <path d="M55 72 L55 112 C55 132 75 148 100 148 C125 148 145 132 145 112 L145 72 L100 94 C99 94.5 98 94.5 97 94 L55 72 Z" fill="#050533"/>
  <!-- tassel cord -->
  <path d="M112 46 C90 52 74 66 68 84 C63 99 65 112 71 122" stroke="#4F46E5" stroke-width="11" stroke-linecap="round" fill="none"/>
  <!-- tassel tip -->
  <path d="M62 118 C60 128 60 138 65 148 C67 152 73 153 77 150 C81 147 82 143 80 138 C77 130 74 122 74 116 C74 112 68 111 65 114 C63 115.5 62 117 62 118 Z" fill="#4F46E5"/>
</svg>
